<?xml version="1.0" encoding="UTF-8" standalone="no"?>
<svg
   xmlns:dc="http://purl.org/dc/elements/1.1/"
   xmlns:cc="http://creativecommons.org/ns#"
   xmlns:rdf="http://www.w3.org/1999/02/22-rdf-syntax-ns#"
   xmlns:svg="http://www.w3.org/2000/svg"
   xmlns="http://www.w3.org/2000/svg"
   xmlns:sodipodi="http://sodipodi.sourceforge.net/DTD/sodipodi-0.dtd"
   xmlns:inkscape="http://www.inkscape.org/namespaces/inkscape"
   viewBox="0 0 700 700"
   style="fill:none"
   version="1.1"
   id="svg16"
   sodipodi:docname="digio-logo-2021-v2.svg"
   width="700"
   height="700"
   inkscape:version="0.92.4 (5da689c313, 2019-01-14)"
   inkscape:export-filename="C:\Users\suitedoalex\Downloads\Plataforma de serviços financeiros pensada para você _ digio. Tudo se transforma.-5.png"
   inkscape:export-xdpi="561.73712"
   inkscape:export-ydpi="561.73712">
  <metadata
     id="metadata22">
    <rdf:RDF>
      <cc:Work
         rdf:about="">
        <dc:format>image/svg+xml</dc:format>
        <dc:type
           rdf:resource="http://purl.org/dc/dcmitype/StillImage" />
        <dc:title></dc:title>
      </cc:Work>
    </rdf:RDF>
  </metadata>
  <defs
     id="defs20" />
  <sodipodi:namedview
     pagecolor="#ffffff"
     bordercolor="#666666"
     borderopacity="1"
     objecttolerance="10"
     gridtolerance="10"
     guidetolerance="10"
     inkscape:pageopacity="0"
     inkscape:pageshadow="2"
     inkscape:window-width="1600"
     inkscape:window-height="837"
     id="namedview18"
     showgrid="false"
     inkscape:zoom="1.3432203"
     inkscape:cx="333.20553"
     inkscape:cy="363.94315"
     inkscape:window-x="-8"
     inkscape:window-y="-8"
     inkscape:window-maximized="1"
     inkscape:current-layer="svg16" />
  <path
     d="m 198.96695,239.70111 c 0.14455,-1.50177 -0.0247,-3.01729 -0.49696,-4.45006 -0.47221,-1.43287 -1.23729,-2.75185 -2.24639,-3.87338 -1.00906,-1.1215 -2.24021,-2.02089 -3.61543,-2.64126 -1.37525,-0.6204 -2.86459,-0.9483 -4.37344,-0.96259 h -0.1312 c -1.51459,0.021 -3.00772,0.36137 -4.38202,0.9988 -1.37428,0.63745 -2.59826,1.55781 -3.59263,2.70065 -0.99432,1.14287 -1.73658,2.48267 -2.17788,3.93183 -0.4413,1.44917 -0.57158,2.97508 -0.38284,4.47813 0,10.25131 0,17.55908 0,27.78861 v 14.79763 c -11.82156,-10.49526 -27.06222,-16.3233 -42.87065,-16.39325 -1.51503,0 -3.07431,0.0509 -4.61928,0.15299 -9.09065,0.44851 -17.97459,2.87224 -26.03373,7.10249 -8.0591,4.23031 -15.099969,10.16539 -20.632596,17.39293 -7.563175,9.53716 -12.275823,21.01829 -13.594128,33.11905 -1.318269,12.10028 0.811489,24.32701 6.143564,35.26937 5.33201,10.94237 13.649034,20.15382 23.991484,26.572 10.342466,6.41819 22.288686,9.7816 34.460786,9.70217 15.81223,-0.14645 31.08142,-5.78761 43.19121,-15.9563 v 4.16752 c -0.18784,1.49887 -0.0523,3.02055 0.39897,4.46234 0.45079,1.44181 1.20594,2.76996 2.2145,3.89459 1.00861,1.12459 2.24689,2.01956 3.63114,2.62395 1.38427,0.60489 2.88218,0.90492 4.39292,0.88069 h 0.087 c 1.51978,0.004 3.02245,-0.31718 4.4091,-0.9387 1.38661,-0.62106 2.62536,-1.52976 3.63489,-2.66533 1.00956,-1.13557 1.7666,-2.47226 2.2212,-3.92215 0.45459,-1.4499 0.59679,-2.97966 0.41607,-4.48852 -0.008,-54.09786 -0.0289,-99.13982 -0.0437,-143.7442 z m -21.42064,91.07433 c -0.0135,11.4659 -4.57312,22.45821 -12.67948,30.5669 -8.10582,8.10917 -19.09714,12.67232 -30.56258,12.68991 -11.46686,0.0134 -22.46894,-4.52846 -30.58659,-12.62714 -8.117692,-8.09871 -12.685657,-19.09054 -12.699157,-30.55692 -0.01349,-11.46638 4.52856,-22.46865 12.627127,-30.5864 8.0985,-8.11773 19.08998,-12.68563 30.55684,-12.6994 v -1.45702 1.45702 c 11.4607,0.0251 22.44586,4.58167 30.55931,12.67611 8.11342,8.09443 12.69611,19.06911 12.74838,30.52982 z"
     id="path2"
     style="fill:#202e55;fill-opacity:1;stroke-width:4.75527334"
     inkscape:connector-curvature="0"
     inkscape:export-filename="G:\Users\suitedoalex\sites\svg\0correto\digio-logo-5-1.png"
     inkscape:export-xdpi="68.434082"
     inkscape:export-ydpi="68.434082" />
  <path
     d="m 254.12905,316.3565 c 0.14314,-1.49602 -0.0257,-3.00533 -0.49549,-4.43289 -0.46983,-1.42701 -1.23116,-2.7414 -2.23499,-3.85983 -1.00387,-1.11795 -2.22879,-2.01577 -3.59784,-2.6368 -1.36857,-0.62059 -2.85079,-0.95011 -4.35344,-0.96818 h -0.1669 c -1.51124,0.0348 -2.99823,0.38233 -4.36824,1.02144 -1.3695,0.63862 -2.5916,1.55447 -3.58924,2.69005 -0.99765,1.13509 -1.74947,2.46515 -2.20695,3.9055 -0.45746,1.44039 -0.61104,2.95969 -0.45176,4.46284 0,8.16716 0,14.1127 0,22.27323 v 20.2256 c 0,8.04878 0,16.09519 0,24.13872 -0.20159,1.52644 -0.0756,3.07857 0.36904,4.5527 0.44508,1.47461 1.19834,2.83699 2.21119,3.99728 1.01288,1.1598 2.26114,2.09088 3.66156,2.73096 1.4009,0.64006 2.92116,0.97483 4.46139,0.98099 h 0.11651 c 1.51786,-2.5e-4 3.01817,-0.32286 4.40244,-0.94533 1.38423,-0.62248 2.62111,-1.53121 3.62874,-2.6663 1.00765,-1.13506 1.76373,-2.47083 2.21833,-3.91926 0.45413,-1.44801 0.59581,-2.97588 0.41706,-4.48329 0.0289,-25.04175 0.0296,-45.44282 -0.0215,-67.06743 z"
     id="path4"
     style="fill:#202e55;fill-opacity:1;stroke-width:4.75527334"
     inkscape:connector-curvature="0"
     inkscape:export-filename="G:\Users\suitedoalex\sites\svg\0correto\digio-logo-5-1.png"
     inkscape:export-xdpi="68.434082"
     inkscape:export-ydpi="68.434082" />
  <path
     d="m 243.78919,266.01084 h -0.33528 c -3.33771,0.0401 -6.53277,1.35908 -8.92659,3.68526 -2.39427,2.32614 -3.8042,5.48226 -3.94023,8.81748 -0.0533,1.71424 0.24158,3.4214 0.86784,5.01819 0.6263,1.59684 1.57071,3.05007 2.7752,4.27122 1.18975,1.24826 2.61779,2.24544 4.19983,2.93208 1.5816,0.68716 3.28449,1.05047 5.00875,1.06807 h 0.066 c 3.37483,-0.0265 6.60509,-1.37526 8.99698,-3.75619 2.39187,-2.38101 3.75476,-5.60457 3.7971,-8.97941 0.0418,-3.37481 -1.24065,-6.63156 -3.57309,-9.07131 -2.33204,-2.43972 -5.52662,-3.86796 -8.90001,-3.97822 z"
     id="path6"
     style="fill:#3fece2;fill-opacity:1;stroke-width:4.75527334"
     inkscape:connector-curvature="0"
     inkscape:export-filename="G:\Users\suitedoalex\sites\svg\0correto\digio-logo-5-1.png"
     inkscape:export-xdpi="68.434082"
     inkscape:export-ydpi="68.434082" />
  <path
     d="m 404.05947,371.64178 c -0.62338,-0.66099 -0.97051,-1.53547 -0.97051,-2.44421 0,-0.90874 0.34713,-1.7832 0.97051,-2.44421 7.8467,-11.72365 11.65282,-25.68798 10.84013,-39.77166 -0.81268,-14.08373 -6.19944,-27.51784 -15.3424,-38.26094 -0.30579,-0.34999 -0.59016,-0.72852 -0.90351,-1.15837 h 0.233 2.48512 c 1.19499,0 5.82854,0 6.71731,-0.0514 2.22596,0.0371 4.40194,-0.65481 6.19755,-1.97012 1.79557,-1.31576 3.11233,-3.18221 3.7481,-5.3159 0.61058,-1.54739 0.8279,-3.22219 0.63483,-4.87465 -0.19309,-1.6525 -0.79225,-3.23166 -1.74328,-4.59682 -1.20497,-1.56206 -2.76807,-2.81145 -4.55699,-3.64207 -1.78942,-0.83065 -3.75192,-1.21833 -5.7225,-1.13041 h -5.21033 c -8.41495,0 -17.12185,-0.0655 -25.6904,-0.0655 -9.87953,0 -18.49894,0.0509 -26.3746,0.15294 -5.09008,0.0841 -10.15254,0.75378 -15.08899,1.99629 -15.1251,3.79681 -28.36236,12.94519 -37.26137,25.75111 -8.89854,12.80646 -12.85589,28.4028 -11.13971,43.9026 1.95918,15.9359 9.55809,30.64488 21.4211,41.46458 11.83633,10.52769 27.1464,16.30678 42.98668,16.22594 12.92534,0.0148 25.56297,-3.81516 36.30605,-11.00183 4.64546,6.92798 7.05636,15.11322 6.90706,23.45302 -0.1636,10.21052 -3.89648,20.04111 -10.55104,27.78696 -6.65403,7.74541 -15.80984,12.91675 -25.87865,14.61772 -2.26542,0.38231 -4.55935,0.57256 -6.85663,0.56825 -8.89756,-0.0276 -17.56883,-2.80418 -24.82822,-7.94891 -7.25941,-5.14521 -12.75127,-12.40791 -15.72472,-20.79432 -0.51929,-1.56023 -0.94964,-3.14897 -1.28965,-4.75767 -0.2549,-1.0419 -0.50262,-2.13513 -0.78698,-3.19124 -0.59396,-2.34341 -1.93495,-4.42907 -3.81992,-5.94219 -1.88501,-1.51314 -4.21174,-2.37099 -6.62792,-2.44421 -0.60867,0 -1.2164,0.0537 -1.81411,0.16782 -2.70576,0.43371 -5.1362,1.90402 -6.77627,4.09904 -1.64058,2.19556 -2.36197,4.94265 -2.01101,7.66076 0.20875,2.43375 0.68381,4.83802 1.41422,7.16908 3.11946,12.23055 9.87192,23.22806 19.36633,31.54458 9.49484,8.31602 21.28552,13.5606 33.82045,15.04187 3.57168,0.51357 7.17476,0.77653 10.78305,0.78653 10.73266,0.0861 21.29553,-2.68246 30.60591,-8.02263 9.3103,-5.34018 17.03339,-13.05942 22.37831,-22.36689 6.8937,-10.42024 10.53767,-22.65321 10.46967,-35.14767 -0.49168,-12.49734 -4.40624,-24.61997 -11.31567,-35.04541 z m -53.67512,2.36812 h -0.13883 c -11.46642,-0.0182 -22.45584,-4.5912 -30.55076,-12.71224 -8.09535,-8.12108 -12.63288,-19.1248 -12.61433,-30.59165 0.0182,-11.46639 4.59121,-22.45629 12.7123,-30.55169 8.12106,-8.09488 19.12476,-12.63239 30.59162,-12.61383 V 286.083 l 0.0503,1.45749 c 11.46687,0.007 22.46108,4.56791 30.56456,12.6809 8.10298,8.11297 12.65184,19.11287 12.6452,30.57925 -0.007,11.46686 -4.56791,22.46108 -12.68088,30.56453 -8.11297,8.10297 -19.11285,12.65139 -30.57927,12.64473 z"
     id="path8"
     style="fill:#202e55;fill-opacity:1;stroke-width:4.75527334"
     inkscape:connector-curvature="0"
     inkscape:export-filename="G:\Users\suitedoalex\sites\svg\0correto\digio-logo-5-1.png"
     inkscape:export-xdpi="68.434082"
     inkscape:export-ydpi="68.434082" />
  <path
     d="m 468.4901,316.3565 c 0.14317,-1.49602 -0.0248,-3.00533 -0.49454,-4.43289 -0.46982,-1.42701 -1.23206,-2.7414 -2.23592,-3.85983 -1.00386,-1.11795 -2.22832,-2.01577 -3.59688,-2.6368 -1.3686,-0.62059 -2.84985,-0.95011 -4.35251,-0.96818 h -0.16884 c -1.51168,0.0337 -2.99817,0.38042 -4.36911,1.01906 -1.37046,0.63863 -2.59449,1.55452 -3.59308,2.69006 -0.99814,1.13557 -1.74948,2.46514 -2.20742,3.90597 -0.45792,1.44133 -0.61293,2.9611 -0.45364,4.46474 0,8.16716 0,14.1127 0,22.27323 v 20.2256 c 0,8.04878 0,16.09519 0,24.13872 -0.20162,1.52644 -0.0747,3.07857 0.36995,4.5527 0.44512,1.47461 1.19833,2.83699 2.21121,3.99728 1.01238,1.1598 2.26017,2.09088 3.66061,2.73096 1.4009,0.64006 2.92164,0.97483 4.46139,0.98099 h 0.11747 c 1.51787,-2.5e-4 3.01819,-0.32286 4.40242,-0.94533 1.38426,-0.62248 2.62114,-1.53121 3.62873,-2.6663 1.00764,-1.13506 1.76377,-2.47083 2.21837,-3.91926 0.45412,-1.44801 0.59488,-2.97588 0.41609,-4.48329 0.0366,-25.04175 0.0366,-45.44282 -0.0143,-67.06743 z"
     id="path10"
     style="fill:#202e55;fill-opacity:1;stroke-width:4.75527334"
     inkscape:connector-curvature="0"
     inkscape:export-filename="G:\Users\suitedoalex\sites\svg\0correto\digio-logo-5-1.png"
     inkscape:export-xdpi="68.434082"
     inkscape:export-ydpi="68.434082" />
  <path
     d="m 458.15787,266.01084 h -0.3343 c -3.33772,0.0401 -6.53375,1.35908 -8.92804,3.68526 -2.3938,2.32614 -3.80373,5.48226 -3.93975,8.81748 -0.0551,1.70998 0.23493,3.4138 0.85169,5.00966 0.61723,1.59587 1.5502,3.05148 2.74142,4.27975 1.18975,1.24826 2.61776,2.24544 4.19984,2.93208 1.5816,0.68716 3.28448,1.05047 5.00873,1.06807 h 0.066 c 3.37577,-0.0234 6.60794,-1.36954 9.00224,-3.74955 2.39424,-2.37956 3.75949,-5.60312 3.80325,-8.97889 0.0437,-3.37529 -1.23688,-6.63366 -3.56835,-9.07488 -2.33153,-2.44121 -5.52898,-3.87079 -8.90283,-3.98181 z"
     id="path12"
     style="fill:#3fece2;fill-opacity:1;stroke-width:4.75527334"
     inkscape:connector-curvature="0"
     inkscape:export-filename="G:\Users\suitedoalex\sites\svg\0correto\digio-logo-5-1.png"
     inkscape:export-xdpi="68.434082"
     inkscape:export-ydpi="68.434082" />
  <path
     d="m 611.62001,284.87422 c -7.52283,-7.50764 -16.77658,-13.04826 -26.9481,-16.13288 -10.17155,-3.08462 -20.94223,-3.61861 -31.37056,-1.55465 -10.42544,2.06397 -20.18231,6.66238 -28.41083,13.38923 -8.22806,6.7273 -14.67429,15.3757 -18.76954,25.18346 -4.09528,9.80775 -5.71345,20.47239 -4.71204,31.05335 1.00149,10.58098 4.59125,20.75298 10.45404,29.61822 5.86228,8.86526 13.81738,16.15082 23.16148,21.21517 9.3446,5.06389 19.7891,7.74967 30.4171,7.821 h 0.14267 c 8.52621,0.0537 16.97634,-1.57303 24.87484,-4.78713 7.8985,-3.2141 15.08847,-7.95225 21.15619,-13.94484 6.03446,-5.97022 10.81352,-13.08366 14.06611,-20.92366 3.25262,-7.84003 4.91219,-16.24925 4.87891,-24.73694 0.0618,-8.57187 -1.57876,-17.07096 -4.83134,-25.00227 -3.24788,-7.9318 -8.04592,-15.13745 -14.10893,-21.19806 z m -45.77425,89.13568 c -11.45544,-0.0499 -22.41823,-4.63971 -30.49031,-12.7622 -8.07211,-8.12293 -12.59198,-19.11526 -12.57058,-30.5669 0.0475,-11.4293 4.61167,-22.37593 12.69658,-30.45419 8.0854,-8.07824 19.03253,-12.63286 30.46418,-12.67138 h 0.10463 c 11.44593,0.0499 22.40683,4.63685 30.47654,12.75508 8.07445,8.11773 12.5967,19.10478 12.58246,30.55261 -0.0524,11.44548 -4.63163,22.40592 -12.73465,30.48844 -8.10775,8.08255 -19.07811,12.6305 -30.5241,12.65143 z"
     id="path14"
     style="fill:#202e55;fill-opacity:1;stroke-width:4.75527334"
     inkscape:connector-curvature="0"
     inkscape:export-filename="G:\Users\suitedoalex\sites\svg\0correto\digio-logo-5-1.png"
     inkscape:export-xdpi="68.434082"
     inkscape:export-ydpi="68.434082" />
</svg>
